***************************************************************

[IMG]http://www.hotimg.org/images/67363952943939111394.png[/IMG]

***************************************************************

[IMG]http://www.hotimg.org/images/43441034072064193729.jpg[/IMG]

***************************************************************

FILM TITLE: Friends with Benefits (2011)

***************************************************************

Genre:  Comedy | Romance  

Rated R for some violent content and brief sexuality

Release: 16 September 2011 (Sweden)

Director: Will Gluck

Writer: Keith Merryman (screenplay), David A. Newman (screenplay)

Stars:  Mila Kunis, Justin Timberlake and Patricia Clarkson

Country: USA

Language: English

Plot:
While trying to avoid the clichés of Hollywood romantic comedies, Dylan 
and Jamie soon discover however that adding the act of sex to their friendship 
does lead to complications.

IMDB Rating:  6.6/10 from 56,619 users   Metascore: 63/100
 
http://www.imdb.com/title/tt1632708/

****************************************************************

[URL=http://www.hotimg.org/viewer.php?file=68667451868349643005.png][IMG]http://www.hotimg.org/images/68667451868349643005_thumb.png[/IMG][/URL]
[URL=http://www.hotimg.org/viewer.php?file=90058172850902381239.png][IMG]http://www.hotimg.org/images/90058172850902381239_thumb.png[/IMG][/URL]
[URL=http://www.hotimg.org/viewer.php?file=98097420034444819259.png][IMG]http://www.hotimg.org/images/98097420034444819259_thumb.png[/IMG][/URL]
[URL=http://www.hotimg.org/viewer.php?file=95229750823208616100.png][IMG]http://www.hotimg.org/images/95229750823208616100_thumb.png[/IMG][/URL]
[URL=http://www.hotimg.org/viewer.php?file=78666514561695218310.png][IMG]http://www.hotimg.org/images/78666514561695218310_thumb.png[/IMG][/URL]

****************************************************************

General
Complete name                    : Friends With Benefits 2011 720p BDRip XviD ac3 (avi) [GREYSHADOW].avi
Format                           : AVI
Format/Info                      : Audio Video Interleave
Format profile                   : OpenDML
File size                        : 3.55 GiB
Duration                         : 1h 49mn
Overall bit rate                 : 4648 Kbps
Writing library                  : VirtualDub build 32842/release

Video
ID                               : 0
Format                           : MPEG-4 Visual
Format profile                   : Simple@L5
Format settings, BVOP            : No
Format settings, QPel            : No
Format settings, GMC             : No warppoints
Format settings, Matrix          : Default (H.263)
Codec ID                         : XVID
Codec ID/Hint                    : XviD
Duration                         : 1h 49mn
Bit rate                         : 3998 Kbps
Width                            : 1280 pixels
Height                           : 528 pixels
Display aspect ratio             : 2.40:1
Frame rate                       : 23.976 fps
Color space                      : YUV
Chroma subsampling               : 4:2:0
Bit depth                        : 8 bits
Scan type                        : Progressive
Compression mode                 : Lossy
Bits/(Pixel*Frame)               : 0.247
Stream size                      : 3.06 GiB (86%)
Writing library                  : XviD 64

Audio
ID                               : 1
Format                           : AC-3
Format/Info                      : Audio Coding 3
Mode extension                   : CM (complete main)
Codec ID                         : 2000
Duration                         : 1h 49mn
Bit rate mode                    : Constant
Bit rate                         : 640 Kbps
Channel(s)                       : 6 channels
Channel positions                : Front: L C R, Side: L R, LFE
Sampling rate                    : 48.0 KHz
Bit depth                        : 16 bits
Compression mode                 : Lossy
Stream size                      : 501 MiB (14%)
Alignment                        : Aligned on interleaves
Interleave, duration             : 42 ms (1.00 video frame)
Interleave, preload duration     : 512 ms

****************************************************************

Video Source: Friends With Benefits 2011 BluRay 1080p AVC DTS-HD MA5.1-CHDBits

Thanks: chdbits.org

****************************************************************

I provide a small sample, so please download this to check your 
compatibility first if you are unsure.

****************************************************************

Hash: F2A4AEF43C49176DEB2DF7322662160A535337C0

Trackers:
.udp://tracker.1337x.org:80/announce

****************************************************************